<mxfile host="app.diagrams.net" modified="2023-12-21T16:04:49.355Z" agent="Mozilla/5.0 (Macintosh; Intel Mac OS X 10_15_7) AppleWebKit/605.1.15 (KHTML, like Gecko) Version/16.3 Safari/605.1.15" version="22.1.11" etag="dyCtwEgGLQgOfCmpl5u-" type="github">
  <diagram name="Page-1" id="qapHlrJata4IxNeS4Zqt">
    <mxGraphModel>
      <root>
        <mxCell id="0" />
        <mxCell id="1" parent="0" />
      </root>
    </mxGraphModel>
  </diagram>
</mxfile>
